HIERARCHY
ROOT Hips
{
	OFFSET 0.000000 0.000000 0.000000
	CHANNELS 6 Xposition Yposition Zposition Zrotation Yrotation Xrotation 
	JOINT LowerBack
	{
		OFFSET 0.000000 0.000000 0.000000
		CHANNELS 3 Zrotation Yrotation Xrotation
		JOINT Spine
		{
			OFFSET 0.028270 2.035590 -0.193380
			CHANNELS 3 Zrotation Yrotation Xrotation
			JOINT Spine1
			{
				OFFSET 0.056720 2.048850 -0.042750
				CHANNELS 3 Zrotation Yrotation Xrotation
				JOINT Neck
				{
					OFFSET 0.000000 0.000000 0.000000
					CHANNELS 3 Zrotation Yrotation Xrotation
					JOINT Neck1
					{
						OFFSET -0.054170 1.746240 0.172020
						CHANNELS 3 Zrotation Yrotation Xrotation
						JOINT Head
						{
							OFFSET 0.104070 1.761360 -0.123970
							CHANNELS 3 Zrotation Yrotation Xrotation
							End Site
							{
								OFFSET 0.000000 0.000000 0.000000
							}
						}
					}
				}
				JOINT LeftShoulder
				{
					OFFSET 0.000000 0.000000 0.000000
					CHANNELS 3 Zrotation Yrotation Xrotation
					JOINT LeftArm
					{
						OFFSET 3.362410 1.200890 -0.311210
						CHANNELS 3 Zrotation Yrotation Xrotation
						JOINT LeftForeArm
						{
							OFFSET 4.983000 -0.000000 -0.000000
							CHANNELS 3 Zrotation Yrotation Xrotation
							JOINT LeftHand
							{
								OFFSET 3.483560 -0.000000 -0.000000
								CHANNELS 3 Zrotation Yrotation Xrotation
								JOINT LeftFingerBase
								{
									OFFSET 0.000000 0.000000 0.000000
									CHANNELS 3 Zrotation Yrotation Xrotation
									JOINT LeftHandIndex1
									{
										OFFSET 0.715260 -0.000000 -0.000000
										CHANNELS 3 Zrotation Yrotation Xrotation
										End Site
										{
											OFFSET 0.000000 0.000000 0.000000
										}
									}
								}
								JOINT LThumb
								{
									OFFSET 0.000000 0.000000 0.000000
									CHANNELS 3 Zrotation Yrotation Xrotation
									End Site
									{
										OFFSET 0.000000 0.000000 0.000000
									}
								}
							}
						}
					}
				}
				JOINT RightShoulder
				{
					OFFSET 0.000000 0.000000 0.000000
					CHANNELS 3 Zrotation Yrotation Xrotation
					JOINT RightArm
					{
						OFFSET -3.136600 1.374050 -0.404650
						CHANNELS 3 Zrotation Yrotation Xrotation
						JOINT RightForeArm
						{
							OFFSET -5.241900 -0.000000 -0.000000
							CHANNELS 3 Zrotation Yrotation Xrotation
							JOINT RightHand
							{
								OFFSET -3.444170 -0.000000 -0.000000
								CHANNELS 3 Zrotation Yrotation Xrotation
								JOINT RightFingerBase
								{
									OFFSET 0.000000 0.000000 0.000000
									CHANNELS 3 Zrotation Yrotation Xrotation
									JOINT RightHandIndex1
									{
										OFFSET -0.622530 -0.000000 -0.000000
										CHANNELS 3 Zrotation Yrotation Xrotation
										End Site
										{
											OFFSET 0.000000 0.000000 0.000000
										}
									}
								}
								JOINT RThumb
								{
									OFFSET 0.000000 0.000000 0.000000
									CHANNELS 3 Zrotation Yrotation Xrotation
									End Site
									{
										OFFSET 0.000000 0.000000 0.000000
									}
								}
							}
						}
					}
				}
			}
		}
	}
}
}
MOTION
Frames: 7
Frame Time: 0.008333
9.584595 21.324234 0.215671 24.583983 -68.526487 1.896096 -5.275284 -1.761523 1.607153 -1.141602 -1.421303 -2.544590 -1.569274 -1.463790 -0.719040 3.527196 -8.523708 1.089855 -0.458209 -0.177167 2.316801 0.000000 0.000000 0.000000 20.908211 4.551813 -4.454405 -38.184181 -43.459331 -41.527407 177.845577 -56.125714 179.910455 5.106308 -4.006140 -0.216591 0.093926 0.928513 -0.000000 0.000000 0.000000 0.000000 0.000000 0.000000 0.000000 -11.332748 -9.257283 -1.378046 23.599498 21.581109 -45.686834 -179.137060 57.806645 179.825970 -16.136681 9.452882 -1.497065 0.355111 -0.853282 -0.000000 0.000000 0.000000 0.000000 0.000000 0.000000 0.000000 
9.497091 21.407199 0.187585 23.894659 -68.076407 3.078780 -5.063310 -1.743188 1.998614 -1.083379 -1.427309 -2.395325 -1.440793 -1.475365 -0.385447 3.452316 -9.342880 0.773296 -0.344531 -0.163957 2.216302 0.000000 0.000000 0.000000 21.496970 5.039990 -4.538196 -37.308521 -42.258581 -44.010462 177.808290 -55.107582 179.906958 5.481307 -3.837279 -0.225020 0.076344 0.914229 -0.000000 0.000000 0.000000 0.000000 0.000000 0.000000 0.000000 -12.110234 -10.315098 -1.179725 22.466604 19.308035 -49.353653 -179.206039 55.887650 179.826613 -16.507449 8.779029 -1.430985 0.392259 -0.836121 -0.000000 0.000000 0.000000 0.000000 0.000000 0.000000 0.000000 
9.405980 21.477731 0.161011 23.311005 -67.752961 4.183032 -4.846940 -1.731677 2.319854 -1.030475 -1.439656 -2.245235 -1.348250 -1.493995 -0.003401 3.369937 -10.239364 0.406226 -0.255419 -0.151164 2.100896 0.000000 0.000000 0.000000 21.917676 5.671661 -4.598596 -36.243706 -41.033347 -46.265005 177.781787 -54.315037 179.903407 5.887715 -3.625720 -0.231161 0.057724 0.897358 -0.000000 0.000000 0.000000 0.000000 0.000000 0.000000 0.000000 -12.679944 -11.464447 -1.003767 21.372307 17.284855 -52.845344 -179.265663 54.406644 179.827647 -16.816838 8.148993 -1.360912 0.423561 -0.816589 -0.000000 0.000000 0.000000 0.000000 0.000000 0.000000 0.000000 
9.310739 21.536978 0.137895 22.786810 -67.539877 5.249030 -4.611838 -1.730569 2.565257 -0.977194 -1.462196 -2.099788 -1.286192 -1.523890 0.413251 3.276001 -11.171711 -0.000840 -0.186417 -0.138758 1.973944 0.000000 0.000000 0.000000 22.156594 6.448014 -4.637570 -35.081757 -39.841132 -48.196671 177.763898 -53.744413 179.900085 6.298889 -3.373030 -0.233401 0.039407 0.878719 -0.000000 0.000000 0.000000 0.000000 0.000000 0.000000 0.000000 -13.066970 -12.653065 -0.857514 20.329259 15.472537 -56.083712 -179.307490 53.315040 179.828842 -17.073774 7.568921 -1.290352 0.448647 -0.795875 -0.000000 0.000000 0.000000 0.000000 0.000000 0.000000 0.000000 
9.211033 21.586242 0.119207 22.334418 -67.412885 6.260316 -4.369700 -1.742614 2.733925 -0.924013 -1.496587 -1.963788 -1.247907 -1.566679 0.849559 3.173772 -12.097937 -0.437172 -0.132387 -0.126676 1.838902 0.000000 0.000000 0.000000 22.232045 7.349664 -4.659316 -33.918278 -38.721252 -49.739500 177.752449 -53.365708 179.897210 6.690104 -3.086864 -0.230937 0.022467 0.859254 -0.000000 0.000000 0.000000 0.000000 0.000000 0.000000 0.000000 -13.302019 -13.824801 -0.738649 19.365419 13.801813 -59.001854 -179.328164 52.542295 179.829970 -17.295460 7.041022 -1.222103 0.468095 -0.775029 -0.000000 0.000000 0.000000 0.000000 0.000000 0.000000 0.000000 
9.106206 21.626827 0.105354 21.991929 -67.344706 7.183473 -4.140869 -1.769669 2.825060 -0.873663 -1.543299 -1.841422 -1.226015 -1.622536 1.292660 3.068295 -12.981367 -0.893203 -0.088189 -0.114824 1.698885 0.000000 0.000000 0.000000 22.179215 8.343290 -4.667643 -32.842042 -37.693395 -50.860775 177.746719 -53.135363 179.894928 7.041311 -2.778541 -0.223564 0.007561 0.839838 -0.000000 0.000000 0.000000 0.000000 0.000000 0.000000 0.000000 -13.420784 -14.928050 -0.638553 18.518419 12.193440 -61.543909 -179.328185 52.011273 179.830842 -17.501463 6.565040 -1.158759 0.483019 -0.754872 0.000000 0.000000 0.000000 0.000000 0.000000 0.000000 0.000000 
8.996117 21.660019 0.096611 21.766724 -67.306679 8.006687 -3.929141 -1.812939 2.841944 -0.825096 -1.603286 -1.735384 -1.212951 -1.692060 1.731527 2.958053 -13.785336 -1.359067 -0.048893 -0.103094 1.556986 0.000000 0.000000 0.000000 22.030389 9.389232 -4.663545 -31.923783 -36.759903 -51.562592 177.747939 -53.000404 179.893279 7.341012 -2.463157 -0.212078 -0.005194 0.821269 -0.000000 0.000000 0.000000 0.000000 0.000000 0.000000 0.000000 -13.470538 -15.913106 -0.546129 17.827294 10.568719 -63.669740 -179.309500 51.645759 179.831336 -17.707187 6.139053 -1.101422 0.494615 -0.735980 -0.000000 0.000000 0.000000 0.000000 0.000000 0.000000 0.000000 
